<?xml version="1.0" encoding="iso-8859-1"?>
<!-- Generator: Adobe Illustrator 19.0.0, SVG Export Plug-In . SVG Version: 6.00 Build 0)  -->
<svg xmlns="http://www.w3.org/2000/svg" xmlns:xlink="http://www.w3.org/1999/xlink" version="1.1" id="Capa_1" x="0px" y="0px" viewBox="0 0 512 512" style="enable-background:new 0 0 512 512;" xml:space="preserve" width="512px" height="512px">
<g>
	<g>
		<g>
			<path d="M196.07,494.933h-17.647c-4.71,0-8.533,3.814-8.533,8.533c0,4.719,3.823,8.533,8.533,8.533h17.647     c4.71,0,8.533-3.814,8.533-8.533C204.604,498.748,200.781,494.933,196.07,494.933z" fill="#FFFFFF"/>
			<path d="M183.031,8.533c0-4.719-3.823-8.533-8.533-8.533h-17.647c-4.71,0-8.533,3.814-8.533,8.533s3.823,8.533,8.533,8.533     h17.647C179.209,17.067,183.031,13.252,183.031,8.533z" fill="#FFFFFF"/>
			<path d="M235.981,8.533c0-4.719-3.823-8.533-8.533-8.533h-17.647c-4.71,0-8.533,3.814-8.533,8.533s3.823,8.533,8.533,8.533     h17.647C232.158,17.067,235.981,13.252,235.981,8.533z" fill="#FFFFFF"/>
			<path d="M288.93,8.533c0-4.719-3.823-8.533-8.533-8.533H262.75c-4.71,0-8.533,3.814-8.533,8.533s3.823,8.533,8.533,8.533h17.647     C285.107,17.067,288.93,13.252,288.93,8.533z" fill="#FFFFFF"/>
			<path d="M301.961,494.933h-17.647c-4.71,0-8.533,3.814-8.533,8.533c0,4.719,3.823,8.533,8.533,8.533h17.647     c4.71,0,8.533-3.814,8.533-8.533C310.494,498.748,306.671,494.933,301.961,494.933z" fill="#FFFFFF"/>
			<path d="M121.557,0H103.91c-4.71,0-8.533,3.814-8.533,8.533s3.823,8.533,8.533,8.533h17.647c4.71,0,8.533-3.814,8.533-8.533     S126.268,0,121.557,0z" fill="#FFFFFF"/>
			<path d="M249.011,494.933h-17.647c-4.71,0-8.533,3.814-8.533,8.533c0,4.719,3.823,8.533,8.533,8.533h17.647     c4.71,0,8.533-3.814,8.533-8.533C257.545,498.748,253.722,494.933,249.011,494.933z" fill="#FFFFFF"/>
			<path d="M341.871,8.533c0-4.719-3.823-8.533-8.533-8.533h-17.647c-4.71,0-8.533,3.814-8.533,8.533s3.823,8.533,8.533,8.533     h17.647C338.057,17.067,341.871,13.252,341.871,8.533z" fill="#FFFFFF"/>
			<path d="M8.533,222.95c-4.71,0-8.533,3.814-8.533,8.533v17.647c0,4.719,3.823,8.533,8.533,8.533s8.533-3.814,8.533-8.533v-17.647     C17.067,226.765,13.244,222.95,8.533,222.95z" fill="#FFFFFF"/>
			<path d="M68.608,0H50.961c-4.71,0-8.414,3.814-8.414,8.533s3.942,8.533,8.653,8.533h17.408c4.71,0,8.533-3.814,8.533-8.533     S73.318,0,68.608,0z" fill="#FFFFFF"/>
			<path d="M8.533,170.01c-4.71,0-8.533,3.814-8.533,8.533v17.638c0,4.719,3.823,8.533,8.533,8.533s8.533-3.814,8.533-8.533v-17.638     C17.067,173.824,13.244,170.01,8.533,170.01z" fill="#FFFFFF"/>
			<path d="M8.533,275.9c-4.71,0-8.533,3.814-8.533,8.533v17.647c0,4.719,3.823,8.533,8.533,8.533s8.533-3.814,8.533-8.533v-17.647     C17.067,279.714,13.244,275.9,8.533,275.9z" fill="#FFFFFF"/>
			<path d="M13.329,16.742C8.525,22.016,4.932,28.109,2.662,34.859c-1.502,4.463,0.896,9.31,5.367,10.812     c0.905,0.299,1.826,0.444,2.722,0.444c3.558,0,6.886-2.244,8.09-5.803c1.51-4.506,3.9-8.559,7.1-12.066     c3.174-3.49,2.927-8.883-0.555-12.058C21.897,13.005,16.503,13.261,13.329,16.742z" fill="#FFFFFF"/>
			<path d="M8.533,117.06c-4.71,0-8.533,3.814-8.533,8.533v17.647c0,4.719,3.823,8.533,8.533,8.533s8.533-3.814,8.533-8.533v-17.647     C17.067,120.875,13.244,117.06,8.533,117.06z" fill="#FFFFFF"/>
			<path d="M8.533,64.111C3.823,64.111,0,67.925,0,72.644v17.647c0,4.719,3.823,8.533,8.533,8.533s8.533-3.814,8.533-8.533V72.644     C17.067,67.925,13.244,64.111,8.533,64.111z" fill="#FFFFFF"/>
			<path d="M503.467,95.249c-4.71,0-8.533,3.814-8.533,8.533v17.647c0,4.719,3.823,8.533,8.533,8.533s8.533-3.814,8.533-8.533     v-17.647C512,99.063,508.177,95.249,503.467,95.249z" fill="#FFFFFF"/>
			<path d="M503.467,254.097c-4.71,0-8.533,3.814-8.533,8.533v17.647c0,4.719,3.823,8.533,8.533,8.533s8.533-3.823,8.533-8.533     V262.63C512,257.911,508.177,254.097,503.467,254.097z" fill="#FFFFFF"/>
			<path d="M503.467,307.029c-4.71,0-8.533,3.814-8.533,8.533v17.655c0,4.719,3.823,8.533,8.533,8.533S512,337.937,512,333.21     v-17.647C512,310.844,508.177,307.029,503.467,307.029z" fill="#FFFFFF"/>
			<path d="M503.467,359.987c-4.71,0-8.533,3.814-8.533,8.533v17.647c0,4.719,3.823,8.533,8.533,8.533s8.533-3.814,8.533-8.533     v-17.647C512,363.802,508.177,359.987,503.467,359.987z" fill="#FFFFFF"/>
			<path d="M354.901,494.933h-17.647c-4.71,0-8.533,3.814-8.533,8.533c0,4.719,3.823,8.533,8.533,8.533h17.647     c4.719,0,8.533-3.814,8.533-8.533C363.435,498.748,359.612,494.933,354.901,494.933z" fill="#FFFFFF"/>
			<path d="M512,50.842c0-4.719-3.823-8.354-8.533-8.354c-4.719,0-8.533,3.994-8.533,8.713v17.28c0,4.719,3.823,8.533,8.533,8.533     S512,73.199,512,68.497V50.961l-8.533-0.119H512z" fill="#FFFFFF"/>
			<path d="M503.467,412.937c-4.71,0-8.533,3.814-8.533,8.533v17.647c0,4.719,3.823,8.533,8.533,8.533s8.533-3.814,8.533-8.533     V421.47C512,416.751,508.177,412.937,503.467,412.937z" fill="#FFFFFF"/>
			<path d="M503.467,148.198c-4.71,0-8.533,3.814-8.533,8.533v17.647c0,4.719,3.823,8.533,8.533,8.533s8.533-3.823,8.533-8.533     v-17.647C512,152.013,508.177,148.198,503.467,148.198z" fill="#FFFFFF"/>
			<path d="M503.467,201.148c-4.71,0-8.533,3.814-8.533,8.533v17.647c0,4.719,3.823,8.533,8.533,8.533s8.533-3.823,8.533-8.533     v-17.647C512,204.962,508.177,201.148,503.467,201.148z" fill="#FFFFFF"/>
			<path d="M447.77,8.533c0-4.719-3.823-8.533-8.533-8.533h-17.647c-4.71,0-8.533,3.814-8.533,8.533s3.823,8.533,8.533,8.533h17.647     C443.947,17.067,447.77,13.252,447.77,8.533z" fill="#FFFFFF"/>
			<path d="M504.004,466.082c-4.463-1.502-9.301,0.964-10.778,5.427c-1.485,4.489-3.857,8.576-7.049,12.134     c-3.149,3.507-2.859,8.9,0.648,12.049c1.621,1.468,3.661,2.185,5.692,2.185c2.347,0,4.676-0.964,6.357-2.833     c4.779-5.325,8.328-11.443,10.556-18.185C510.908,472.38,508.476,467.558,504.004,466.082z" fill="#FFFFFF"/>
			<path d="M394.82,8.533c0-4.719-3.823-8.533-8.533-8.533H368.64c-4.71,0-8.533,3.814-8.533,8.533s3.823,8.533,8.533,8.533h17.647     C390.997,17.067,394.82,13.252,394.82,8.533z" fill="#FFFFFF"/>
			<path d="M407.851,494.933h-17.647c-4.71,0-8.533,3.814-8.533,8.533c0,4.719,3.823,8.533,8.533,8.533h17.647     c4.719,0,8.533-3.814,8.533-8.533C416.384,498.748,412.561,494.933,407.851,494.933z" fill="#FFFFFF"/>
			<path d="M495.753,25.284c3.166-3.49,2.901-8.892-0.589-12.058c-5.299-4.796-11.409-8.371-18.167-10.624     c-4.471-1.468-9.301,0.939-10.786,5.41c-1.493,4.471,0.93,9.301,5.402,10.795c4.489,1.493,8.55,3.866,12.083,7.074     c1.638,1.476,3.686,2.21,5.726,2.21C491.742,28.092,494.054,27.153,495.753,25.284z" fill="#FFFFFF"/>
			<path d="M460.8,494.933h-17.647c-4.71,0-8.533,3.814-8.533,8.533c0,4.719,3.823,8.533,8.533,8.533l17.997-0.008l0.137-8.533     v8.533c4.71,0,8.286-3.814,8.286-8.533C469.572,498.748,465.51,494.933,460.8,494.933z" fill="#FFFFFF"/>
		</g>
	</g>
</g>
<g>
	<g>
		<path d="M424.166,87.834c-3.337-3.337-8.73-3.337-12.066,0L224.367,275.567c-3.337,3.337-3.337,8.73,0,12.066    c1.664,1.664,3.849,2.5,6.033,2.5c2.185,0,4.369-0.836,6.033-2.5L424.166,99.9C427.503,96.563,427.503,91.17,424.166,87.834z" fill="#FFFFFF"/>
	</g>
</g>
<g>
	<g>
		<path d="M418.133,85.333h-102.4c-4.71,0-8.533,3.814-8.533,8.533c0,4.719,3.823,8.533,8.533,8.533H409.6v93.867    c0,4.719,3.823,8.533,8.533,8.533s8.533-3.814,8.533-8.533v-102.4C426.667,89.148,422.844,85.333,418.133,85.333z" fill="#FFFFFF"/>
	</g>
</g>
<g>
	<g>
		<path d="M136.533,324.267h-128c-4.71,0-8.533,3.814-8.533,8.533v128C0,489.037,22.963,512,51.2,512h128    c4.71,0,8.533-3.814,8.533-8.533v-128C187.733,347.23,164.77,324.267,136.533,324.267z M170.667,494.933H51.2    c-18.825,0-34.133-15.309-34.133-34.133V341.333h119.467c18.825,0,34.133,15.309,34.133,34.133V494.933z" fill="#FFFFFF"/>
	</g>
</g>
<g>
</g>
<g>
</g>
<g>
</g>
<g>
</g>
<g>
</g>
<g>
</g>
<g>
</g>
<g>
</g>
<g>
</g>
<g>
</g>
<g>
</g>
<g>
</g>
<g>
</g>
<g>
</g>
<g>
</g>
</svg>
